<?xml version="1.0" encoding="utf-8"?>
<!-- Generator: Adobe Illustrator 25.2.3, SVG Export Plug-In . SVG Version: 6.00 Build 0)  -->
<svg version="1.1" id="Ebene_1" xmlns="http://www.w3.org/2000/svg" xmlns:xlink="http://www.w3.org/1999/xlink" x="0px" y="0px"
	 viewBox="0 0 70.9 70.9" style="enable-background:new 0 0 70.9 70.9;" xml:space="preserve">
<style type="text/css">
	.st0{fill:#F8AC00;}
	.st1{fill:#3C3C3B;}
	.st2{fill:none;}
</style>
<g id="Ebene_2_1_">
	<g id="Ebene_1-2">
		<path class="st0" d="M35.4,47.9h14c-0.5,7.3-6.6,13-14,13c-13.1,0-19-16.6-8.8-24.9C35.2,48.4,34.7,47.9,35.4,47.9z"/>
		<path class="st0" d="M36,45.9l-7.6-11c6.7-3.9,15.2-1.7,19.2,4.9c1.1,1.9,1.8,3.9,1.9,6.1H36z"/>
		<path class="st1" d="M56.4,12.9h-42c-1.7,0-3,1.3-3,3l0,0v36c0,1.7,1.3,3,3,3h7.2c-0.4-0.6-0.7-1.3-1-2h-6.2c-0.6,0-1-0.4-1-1v-29
			h44v29c0,0.6-0.4,1-1,1h-6.2c-0.3,0.7-0.6,1.4-1,2h7.2c1.7,0,3-1.3,3-3v-36C59.4,14.3,58.1,12.9,56.4,12.9z M57.4,20.9h-44v-5
			c0-0.6,0.4-1,1-1h42c0.6,0,1,0.4,1,1V20.9z"/>
		<path class="st0" d="M17.4,17.9c0,0.6-0.4,1-1,1c-0.6,0-1-0.4-1-1s0.4-1,1-1C17,16.9,17.4,17.4,17.4,17.9z"/>
		<path class="st0" d="M21.4,17.9c0,0.6-0.4,1-1,1s-1-0.4-1-1s0.4-1,1-1S21.4,17.4,21.4,17.9z"/>
		<path class="st0" d="M25.4,17.9c0,0.6-0.4,1-1,1s-1-0.4-1-1s0.4-1,1-1S25.4,17.4,25.4,17.9z"/>
		<path class="st1" d="M27.4,45.9h-8c-0.6,0-1-0.4-1-1v-11c0-0.6,0.4-1,1-1s1,0.4,1,1v10h7c0.6,0,1,0.4,1,1S28,45.9,27.4,45.9z"/>
		<path class="st1" d="M27.4,30.9h-10c-0.6,0-1-0.4-1-1s0.4-1,1-1h10c0.6,0,1,0.4,1,1S28,30.9,27.4,30.9z"/>
		<path class="st1" d="M27.4,26.9h-10c-0.6,0-1-0.4-1-1s0.4-1,1-1h10c0.6,0,1,0.4,1,1S28,26.9,27.4,26.9z"/>
		<path class="st1" d="M51.4,41.9h-10c-0.6,0-1-0.4-1-1s0.4-1,1-1h9v-6c0-0.6,0.4-1,1-1s1,0.4,1,1v7C52.4,41.5,52,41.9,51.4,41.9z"
			/>
		<path class="st1" d="M53.4,30.9h-10c-0.6,0-1-0.4-1-1s0.4-1,1-1h10c0.6,0,1,0.4,1,1S54,30.9,53.4,30.9z"/>
		<path class="st1" d="M53.4,26.9h-10c-0.6,0-1-0.4-1-1s0.4-1,1-1h10c0.6,0,1,0.4,1,1S54,26.9,53.4,26.9z"/>
		<rect y="0" class="st2" width="70.9" height="70.9"/>
	</g>
</g>
</svg>
